<mxfile host="app.diagrams.net" agent="Mozilla/5.0 (X11; Ubuntu; Linux x86_64; rv:137.0) Gecko/20100101 Firefox/137.0" version="26.2.12">
  <diagram name="Page-1" id="hXDqo6vbqyw0uNL_EDR8">
    <mxGraphModel dx="2790" dy="1090" grid="1" gridSize="10" guides="1" tooltips="1" connect="1" arrows="1" fold="1" page="1" pageScale="1" pageWidth="850" pageHeight="1100" math="0" shadow="0">
      <root>
        <mxCell id="0" />
        <mxCell id="1" parent="0" />
        <mxCell id="3VtM1QO3zEpzEDvkbCo9-58" style="edgeStyle=orthogonalEdgeStyle;rounded=0;orthogonalLoop=1;jettySize=auto;html=1;exitX=1;exitY=0.5;exitDx=0;exitDy=0;" edge="1" parent="1" source="3VtM1QO3zEpzEDvkbCo9-52" target="3VtM1QO3zEpzEDvkbCo9-57">
          <mxGeometry relative="1" as="geometry" />
        </mxCell>
        <mxCell id="3VtM1QO3zEpzEDvkbCo9-52" value="" style="rounded=1;whiteSpace=wrap;html=1;" vertex="1" parent="1">
          <mxGeometry x="680" y="480" width="130" height="120" as="geometry" />
        </mxCell>
        <mxCell id="3VtM1QO3zEpzEDvkbCo9-46" value="" style="rounded=1;whiteSpace=wrap;html=1;" vertex="1" parent="1">
          <mxGeometry x="-130" y="710" width="140" height="100" as="geometry" />
        </mxCell>
        <mxCell id="3VtM1QO3zEpzEDvkbCo9-41" value="" style="rounded=1;whiteSpace=wrap;html=1;" vertex="1" parent="1">
          <mxGeometry x="-134.5" y="500" width="150" height="130" as="geometry" />
        </mxCell>
        <mxCell id="3VtM1QO3zEpzEDvkbCo9-30" value="" style="rounded=1;whiteSpace=wrap;html=1;" vertex="1" parent="1">
          <mxGeometry x="159.25" y="690" width="252.5" height="220" as="geometry" />
        </mxCell>
        <mxCell id="3VtM1QO3zEpzEDvkbCo9-21" value="" style="rounded=1;whiteSpace=wrap;html=1;" vertex="1" parent="1">
          <mxGeometry x="476.75" y="690" width="215" height="220" as="geometry" />
        </mxCell>
        <mxCell id="3VtM1QO3zEpzEDvkbCo9-54" style="edgeStyle=orthogonalEdgeStyle;rounded=0;orthogonalLoop=1;jettySize=auto;html=1;exitX=1;exitY=0.5;exitDx=0;exitDy=0;entryX=0;entryY=0.5;entryDx=0;entryDy=0;" edge="1" parent="1" source="3VtM1QO3zEpzEDvkbCo9-14" target="3VtM1QO3zEpzEDvkbCo9-52">
          <mxGeometry relative="1" as="geometry" />
        </mxCell>
        <mxCell id="3VtM1QO3zEpzEDvkbCo9-14" value="" style="rounded=1;whiteSpace=wrap;html=1;" vertex="1" parent="1">
          <mxGeometry x="285" y="480" width="280" height="120" as="geometry" />
        </mxCell>
        <mxCell id="3VtM1QO3zEpzEDvkbCo9-39" style="edgeStyle=orthogonalEdgeStyle;rounded=0;orthogonalLoop=1;jettySize=auto;html=1;exitX=0;exitY=0.5;exitDx=0;exitDy=0;entryX=0.5;entryY=0;entryDx=0;entryDy=0;" edge="1" parent="1" source="3VtM1QO3zEpzEDvkbCo9-5" target="3VtM1QO3zEpzEDvkbCo9-34">
          <mxGeometry relative="1" as="geometry" />
        </mxCell>
        <mxCell id="3VtM1QO3zEpzEDvkbCo9-55" style="edgeStyle=orthogonalEdgeStyle;rounded=0;orthogonalLoop=1;jettySize=auto;html=1;exitX=1;exitY=0.5;exitDx=0;exitDy=0;entryX=0.5;entryY=0;entryDx=0;entryDy=0;" edge="1" parent="1" source="3VtM1QO3zEpzEDvkbCo9-5" target="3VtM1QO3zEpzEDvkbCo9-52">
          <mxGeometry relative="1" as="geometry" />
        </mxCell>
        <mxCell id="3VtM1QO3zEpzEDvkbCo9-5" value="" style="rounded=1;whiteSpace=wrap;html=1;" vertex="1" parent="1">
          <mxGeometry x="290" y="99" width="260" height="140" as="geometry" />
        </mxCell>
        <mxCell id="3VtM1QO3zEpzEDvkbCo9-1" value="" style="sketch=0;pointerEvents=1;shadow=0;dashed=0;html=1;strokeColor=none;fillColor=#505050;labelPosition=center;verticalLabelPosition=bottom;verticalAlign=top;outlineConnect=0;align=center;shape=mxgraph.office.devices.laptop;" vertex="1" parent="1">
          <mxGeometry x="340" y="160" width="58" height="34" as="geometry" />
        </mxCell>
        <mxCell id="3VtM1QO3zEpzEDvkbCo9-2" value="" style="sketch=0;verticalLabelPosition=bottom;sketch=0;aspect=fixed;html=1;verticalAlign=top;strokeColor=none;fillColor=#000000;align=center;outlineConnect=0;pointerEvents=1;shape=mxgraph.citrix2.mobile;" vertex="1" parent="1">
          <mxGeometry x="470" y="144" width="25.255" height="50" as="geometry" />
        </mxCell>
        <mxCell id="3VtM1QO3zEpzEDvkbCo9-3" value="Web browser" style="text;html=1;align=center;verticalAlign=middle;whiteSpace=wrap;rounded=0;" vertex="1" parent="1">
          <mxGeometry x="328" y="202" width="82" height="30" as="geometry" />
        </mxCell>
        <mxCell id="3VtM1QO3zEpzEDvkbCo9-9" style="edgeStyle=orthogonalEdgeStyle;rounded=0;orthogonalLoop=1;jettySize=auto;html=1;exitX=0.5;exitY=1;exitDx=0;exitDy=0;" edge="1" parent="1" source="3VtM1QO3zEpzEDvkbCo9-4">
          <mxGeometry relative="1" as="geometry">
            <mxPoint x="430" y="320" as="targetPoint" />
          </mxGeometry>
        </mxCell>
        <mxCell id="3VtM1QO3zEpzEDvkbCo9-4" value="Mobile app" style="text;html=1;align=center;verticalAlign=middle;whiteSpace=wrap;rounded=0;" vertex="1" parent="1">
          <mxGeometry x="441.63" y="202" width="82" height="30" as="geometry" />
        </mxCell>
        <mxCell id="3VtM1QO3zEpzEDvkbCo9-6" value="User" style="text;html=1;align=center;verticalAlign=middle;whiteSpace=wrap;rounded=0;" vertex="1" parent="1">
          <mxGeometry x="290" y="110" width="60" height="30" as="geometry" />
        </mxCell>
        <mxCell id="3VtM1QO3zEpzEDvkbCo9-15" style="edgeStyle=orthogonalEdgeStyle;rounded=0;orthogonalLoop=1;jettySize=auto;html=1;exitX=0.5;exitY=1;exitDx=0;exitDy=0;exitPerimeter=0;entryX=0.5;entryY=0;entryDx=0;entryDy=0;" edge="1" parent="1" source="3VtM1QO3zEpzEDvkbCo9-7" target="3VtM1QO3zEpzEDvkbCo9-14">
          <mxGeometry relative="1" as="geometry" />
        </mxCell>
        <mxCell id="3VtM1QO3zEpzEDvkbCo9-7" value="" style="outlineConnect=0;dashed=0;verticalLabelPosition=bottom;verticalAlign=top;align=center;html=1;shape=mxgraph.aws3.application_load_balancer;fillColor=#F58536;gradientColor=none;" vertex="1" parent="1">
          <mxGeometry x="391" y="320" width="69" height="72" as="geometry" />
        </mxCell>
        <mxCell id="3VtM1QO3zEpzEDvkbCo9-8" style="edgeStyle=orthogonalEdgeStyle;rounded=0;orthogonalLoop=1;jettySize=auto;html=1;exitX=0.5;exitY=1;exitDx=0;exitDy=0;entryX=0.5;entryY=0;entryDx=0;entryDy=0;entryPerimeter=0;" edge="1" parent="1" source="3VtM1QO3zEpzEDvkbCo9-3" target="3VtM1QO3zEpzEDvkbCo9-7">
          <mxGeometry relative="1" as="geometry" />
        </mxCell>
        <mxCell id="3VtM1QO3zEpzEDvkbCo9-10" value="Load Balancer" style="text;html=1;align=center;verticalAlign=middle;whiteSpace=wrap;rounded=0;" vertex="1" parent="1">
          <mxGeometry x="480" y="341" width="80" height="30" as="geometry" />
        </mxCell>
        <mxCell id="3VtM1QO3zEpzEDvkbCo9-11" value="" style="image;aspect=fixed;perimeter=ellipsePerimeter;html=1;align=center;shadow=0;dashed=0;fontColor=#4277BB;labelBackgroundColor=default;fontSize=12;spacingTop=3;image=img/lib/ibm/applications/app_server.svg;" vertex="1" parent="1">
          <mxGeometry x="310" y="500" width="60" height="60" as="geometry" />
        </mxCell>
        <mxCell id="3VtM1QO3zEpzEDvkbCo9-12" value="" style="image;aspect=fixed;perimeter=ellipsePerimeter;html=1;align=center;shadow=0;dashed=0;fontColor=#4277BB;labelBackgroundColor=default;fontSize=12;spacingTop=3;image=img/lib/ibm/applications/app_server.svg;" vertex="1" parent="1">
          <mxGeometry x="395" y="500" width="60" height="60" as="geometry" />
        </mxCell>
        <mxCell id="3VtM1QO3zEpzEDvkbCo9-13" value="" style="image;aspect=fixed;perimeter=ellipsePerimeter;html=1;align=center;shadow=0;dashed=0;fontColor=#4277BB;labelBackgroundColor=default;fontSize=12;spacingTop=3;image=img/lib/ibm/applications/app_server.svg;" vertex="1" parent="1">
          <mxGeometry x="475" y="500" width="60" height="60" as="geometry" />
        </mxCell>
        <mxCell id="3VtM1QO3zEpzEDvkbCo9-32" style="edgeStyle=orthogonalEdgeStyle;rounded=0;orthogonalLoop=1;jettySize=auto;html=1;exitX=0.5;exitY=1;exitDx=0;exitDy=0;entryX=0.5;entryY=0;entryDx=0;entryDy=0;" edge="1" parent="1" source="3VtM1QO3zEpzEDvkbCo9-16" target="3VtM1QO3zEpzEDvkbCo9-30">
          <mxGeometry relative="1" as="geometry" />
        </mxCell>
        <mxCell id="3VtM1QO3zEpzEDvkbCo9-33" style="edgeStyle=orthogonalEdgeStyle;rounded=0;orthogonalLoop=1;jettySize=auto;html=1;exitX=0.5;exitY=1;exitDx=0;exitDy=0;entryX=0.5;entryY=0;entryDx=0;entryDy=0;" edge="1" parent="1" source="3VtM1QO3zEpzEDvkbCo9-16" target="3VtM1QO3zEpzEDvkbCo9-21">
          <mxGeometry relative="1" as="geometry" />
        </mxCell>
        <mxCell id="3VtM1QO3zEpzEDvkbCo9-16" value="API servers" style="text;html=1;align=center;verticalAlign=middle;whiteSpace=wrap;rounded=0;" vertex="1" parent="1">
          <mxGeometry x="383" y="570" width="85" height="30" as="geometry" />
        </mxCell>
        <mxCell id="3VtM1QO3zEpzEDvkbCo9-18" value="" style="shape=cylinder3;whiteSpace=wrap;html=1;boundedLbl=1;backgroundOutline=1;size=15;fillColor=#dae8fc;strokeColor=#6c8ebf;" vertex="1" parent="1">
          <mxGeometry x="521.75" y="710" width="60" height="80" as="geometry" />
        </mxCell>
        <mxCell id="3VtM1QO3zEpzEDvkbCo9-19" value="" style="shape=cylinder3;whiteSpace=wrap;html=1;boundedLbl=1;backgroundOutline=1;size=15;fillColor=#dae8fc;strokeColor=#6c8ebf;" vertex="1" parent="1">
          <mxGeometry x="551.75" y="750" width="60" height="80" as="geometry" />
        </mxCell>
        <mxCell id="3VtM1QO3zEpzEDvkbCo9-20" value="" style="shape=cylinder3;whiteSpace=wrap;html=1;boundedLbl=1;backgroundOutline=1;size=15;fillColor=#dae8fc;strokeColor=#6c8ebf;" vertex="1" parent="1">
          <mxGeometry x="581.75" y="790" width="60" height="80" as="geometry" />
        </mxCell>
        <mxCell id="3VtM1QO3zEpzEDvkbCo9-22" value="Metadata DB" style="text;html=1;align=center;verticalAlign=middle;whiteSpace=wrap;rounded=0;" vertex="1" parent="1">
          <mxGeometry x="554.25" y="880" width="87.5" height="30" as="geometry" />
        </mxCell>
        <mxCell id="3VtM1QO3zEpzEDvkbCo9-23" value="" style="rounded=1;whiteSpace=wrap;html=1;fillColor=#dae8fc;strokeColor=#6c8ebf;" vertex="1" parent="1">
          <mxGeometry x="191.75" y="730" width="120" height="60" as="geometry" />
        </mxCell>
        <mxCell id="3VtM1QO3zEpzEDvkbCo9-24" value="" style="rounded=1;whiteSpace=wrap;html=1;fillColor=#dae8fc;strokeColor=#6c8ebf;" vertex="1" parent="1">
          <mxGeometry x="221.75" y="770" width="120" height="60" as="geometry" />
        </mxCell>
        <mxCell id="3VtM1QO3zEpzEDvkbCo9-25" value="" style="rounded=1;whiteSpace=wrap;html=1;fillColor=#dae8fc;strokeColor=#6c8ebf;" vertex="1" parent="1">
          <mxGeometry x="262.75" y="810" width="120" height="60" as="geometry" />
        </mxCell>
        <mxCell id="3VtM1QO3zEpzEDvkbCo9-26" value="Cache" style="text;html=1;align=center;verticalAlign=middle;whiteSpace=wrap;rounded=0;" vertex="1" parent="1">
          <mxGeometry x="191.75" y="735" width="60" height="30" as="geometry" />
        </mxCell>
        <mxCell id="3VtM1QO3zEpzEDvkbCo9-27" value="Cache" style="text;html=1;align=center;verticalAlign=middle;whiteSpace=wrap;rounded=0;" vertex="1" parent="1">
          <mxGeometry x="226.75" y="775" width="60" height="30" as="geometry" />
        </mxCell>
        <mxCell id="3VtM1QO3zEpzEDvkbCo9-28" value="Cache" style="text;html=1;align=center;verticalAlign=middle;whiteSpace=wrap;rounded=0;" vertex="1" parent="1">
          <mxGeometry x="269.75" y="815" width="60" height="30" as="geometry" />
        </mxCell>
        <mxCell id="3VtM1QO3zEpzEDvkbCo9-31" value="Metadata Cache" style="text;html=1;align=center;verticalAlign=middle;whiteSpace=wrap;rounded=0;" vertex="1" parent="1">
          <mxGeometry x="255.5" y="880" width="96.25" height="30" as="geometry" />
        </mxCell>
        <mxCell id="3VtM1QO3zEpzEDvkbCo9-34" value="" style="rounded=1;whiteSpace=wrap;html=1;" vertex="1" parent="1">
          <mxGeometry x="-200" y="296" width="280" height="120" as="geometry" />
        </mxCell>
        <mxCell id="3VtM1QO3zEpzEDvkbCo9-35" value="" style="image;aspect=fixed;perimeter=ellipsePerimeter;html=1;align=center;shadow=0;dashed=0;fontColor=#4277BB;labelBackgroundColor=default;fontSize=12;spacingTop=3;image=img/lib/ibm/applications/app_server.svg;" vertex="1" parent="1">
          <mxGeometry x="-175" y="316" width="60" height="60" as="geometry" />
        </mxCell>
        <mxCell id="3VtM1QO3zEpzEDvkbCo9-36" value="" style="image;aspect=fixed;perimeter=ellipsePerimeter;html=1;align=center;shadow=0;dashed=0;fontColor=#4277BB;labelBackgroundColor=default;fontSize=12;spacingTop=3;image=img/lib/ibm/applications/app_server.svg;" vertex="1" parent="1">
          <mxGeometry x="-90" y="316" width="60" height="60" as="geometry" />
        </mxCell>
        <mxCell id="3VtM1QO3zEpzEDvkbCo9-37" value="" style="image;aspect=fixed;perimeter=ellipsePerimeter;html=1;align=center;shadow=0;dashed=0;fontColor=#4277BB;labelBackgroundColor=default;fontSize=12;spacingTop=3;image=img/lib/ibm/applications/app_server.svg;" vertex="1" parent="1">
          <mxGeometry x="-10" y="316" width="60" height="60" as="geometry" />
        </mxCell>
        <mxCell id="3VtM1QO3zEpzEDvkbCo9-43" style="edgeStyle=orthogonalEdgeStyle;rounded=0;orthogonalLoop=1;jettySize=auto;html=1;exitX=0.5;exitY=1;exitDx=0;exitDy=0;entryX=0.5;entryY=0;entryDx=0;entryDy=0;" edge="1" parent="1" source="3VtM1QO3zEpzEDvkbCo9-38" target="3VtM1QO3zEpzEDvkbCo9-41">
          <mxGeometry relative="1" as="geometry" />
        </mxCell>
        <mxCell id="3VtM1QO3zEpzEDvkbCo9-38" value="Block servers" style="text;html=1;align=center;verticalAlign=middle;whiteSpace=wrap;rounded=0;" vertex="1" parent="1">
          <mxGeometry x="-102" y="386" width="85" height="30" as="geometry" />
        </mxCell>
        <mxCell id="3VtM1QO3zEpzEDvkbCo9-40" value="" style="sketch=0;outlineConnect=0;fontColor=#232F3E;gradientColor=none;fillColor=#7AA116;strokeColor=none;dashed=0;verticalLabelPosition=bottom;verticalAlign=top;align=center;html=1;fontSize=12;fontStyle=0;aspect=fixed;pointerEvents=1;shape=mxgraph.aws4.bucket_with_objects;" vertex="1" parent="1">
          <mxGeometry x="-97" y="522" width="75" height="78" as="geometry" />
        </mxCell>
        <mxCell id="3VtM1QO3zEpzEDvkbCo9-47" style="edgeStyle=orthogonalEdgeStyle;rounded=0;orthogonalLoop=1;jettySize=auto;html=1;exitX=0.5;exitY=1;exitDx=0;exitDy=0;entryX=0.5;entryY=0;entryDx=0;entryDy=0;" edge="1" parent="1" source="3VtM1QO3zEpzEDvkbCo9-42" target="3VtM1QO3zEpzEDvkbCo9-46">
          <mxGeometry relative="1" as="geometry" />
        </mxCell>
        <mxCell id="3VtM1QO3zEpzEDvkbCo9-42" value="Cloud storage" style="text;html=1;align=center;verticalAlign=middle;whiteSpace=wrap;rounded=0;" vertex="1" parent="1">
          <mxGeometry x="-102" y="600" width="85" height="30" as="geometry" />
        </mxCell>
        <mxCell id="3VtM1QO3zEpzEDvkbCo9-44" style="edgeStyle=orthogonalEdgeStyle;rounded=0;orthogonalLoop=1;jettySize=auto;html=1;exitX=1;exitY=0.5;exitDx=0;exitDy=0;entryX=0;entryY=0.5;entryDx=0;entryDy=0;entryPerimeter=0;" edge="1" parent="1" source="3VtM1QO3zEpzEDvkbCo9-41" target="3VtM1QO3zEpzEDvkbCo9-7">
          <mxGeometry relative="1" as="geometry" />
        </mxCell>
        <mxCell id="3VtM1QO3zEpzEDvkbCo9-45" value="" style="shape=mxgraph.signs.nature.snowflake;html=1;pointerEvents=1;fillColor=#dae8fc;strokeColor=#6c8ebf;verticalLabelPosition=bottom;verticalAlign=top;align=center;" vertex="1" parent="1">
          <mxGeometry x="-86" y="730" width="52" height="49" as="geometry" />
        </mxCell>
        <mxCell id="3VtM1QO3zEpzEDvkbCo9-48" value="Cold storage" style="text;html=1;align=center;verticalAlign=middle;whiteSpace=wrap;rounded=0;" vertex="1" parent="1">
          <mxGeometry x="-95" y="780" width="70" height="30" as="geometry" />
        </mxCell>
        <mxCell id="3VtM1QO3zEpzEDvkbCo9-51" value="" style="shape=image;html=1;verticalAlign=top;verticalLabelPosition=bottom;labelBackgroundColor=#ffffff;imageAspect=0;aspect=fixed;image=https://cdn1.iconfinder.com/data/icons/ui-essential-17/32/UI_Essential_Outline_1_essential-app-ui-bell-notification-alert-128.png" vertex="1" parent="1">
          <mxGeometry x="720" y="506" width="68" height="68" as="geometry" />
        </mxCell>
        <mxCell id="3VtM1QO3zEpzEDvkbCo9-53" value="Notification Service" style="text;html=1;align=center;verticalAlign=middle;whiteSpace=wrap;rounded=0;" vertex="1" parent="1">
          <mxGeometry x="692.5" y="570" width="105" height="30" as="geometry" />
        </mxCell>
        <mxCell id="3VtM1QO3zEpzEDvkbCo9-56" value="Long Polling" style="text;html=1;align=center;verticalAlign=middle;whiteSpace=wrap;rounded=0;" vertex="1" parent="1">
          <mxGeometry x="750" y="341" width="80" height="30" as="geometry" />
        </mxCell>
        <mxCell id="3VtM1QO3zEpzEDvkbCo9-57" value="" style="sketch=0;aspect=fixed;pointerEvents=1;shadow=0;dashed=0;html=1;strokeColor=none;labelPosition=center;verticalLabelPosition=bottom;verticalAlign=top;align=center;fillColor=#00188D;shape=mxgraph.azure.queue_generic" vertex="1" parent="1">
          <mxGeometry x="880" y="511.25" width="191.67" height="57.5" as="geometry" />
        </mxCell>
        <mxCell id="3VtM1QO3zEpzEDvkbCo9-59" value="Offline backup Queue" style="text;html=1;align=center;verticalAlign=middle;whiteSpace=wrap;rounded=0;" vertex="1" parent="1">
          <mxGeometry x="913.75" y="574" width="124.16" height="30" as="geometry" />
        </mxCell>
        <mxCell id="3VtM1QO3zEpzEDvkbCo9-60" value="&lt;div&gt;We need 3 primary APIs: upload a file, download a file, and get file revisions&lt;/div&gt;&lt;div&gt;&lt;br&gt;&lt;/div&gt;&lt;div&gt;Two types of uploads are supported:&lt;br&gt;- Simple upload&lt;br&gt;- Resumable upload&lt;/div&gt;&lt;div&gt;&lt;br&gt;&lt;/div&gt;" style="rounded=1;whiteSpace=wrap;html=1;dashed=1;fillColor=#fff2cc;strokeColor=#d6b656;align=left;" vertex="1" parent="1">
          <mxGeometry x="820" y="40" width="300" height="160" as="geometry" />
        </mxCell>
        <mxCell id="3VtM1QO3zEpzEDvkbCo9-61" value="" style="endArrow=classic;html=1;rounded=0;exitX=0;exitY=0.5;exitDx=0;exitDy=0;dashed=1;fillColor=#fff2cc;strokeColor=#d6b656;" edge="1" parent="1" source="3VtM1QO3zEpzEDvkbCo9-60">
          <mxGeometry width="50" height="50" relative="1" as="geometry">
            <mxPoint x="660" y="400" as="sourcePoint" />
            <mxPoint x="500" y="270" as="targetPoint" />
          </mxGeometry>
        </mxCell>
        <mxCell id="3VtM1QO3zEpzEDvkbCo9-62" value="Move the database out of the server to avoid single point of failure. In the meantime, set up data replication and sharding to meet the availability and scalability requirements&lt;br&gt;&lt;br&gt;File storage: Amazon S3 is used for file storage. To ensure availability and durability, files are replicated in two separate geographical regions" style="rounded=1;whiteSpace=wrap;html=1;dashed=1;fillColor=#fff2cc;strokeColor=#d6b656;align=left;" vertex="1" parent="1">
          <mxGeometry x="825.83" y="920" width="300" height="160" as="geometry" />
        </mxCell>
        <mxCell id="3VtM1QO3zEpzEDvkbCo9-63" value="" style="endArrow=classic;html=1;rounded=0;exitX=0;exitY=0.5;exitDx=0;exitDy=0;fillColor=#fff2cc;strokeColor=#d6b656;dashed=1;" edge="1" parent="1" source="3VtM1QO3zEpzEDvkbCo9-62">
          <mxGeometry width="50" height="50" relative="1" as="geometry">
            <mxPoint x="660" y="570" as="sourcePoint" />
            <mxPoint x="590" y="920" as="targetPoint" />
          </mxGeometry>
        </mxCell>
        <mxCell id="3VtM1QO3zEpzEDvkbCo9-64" value="" style="endArrow=classic;html=1;rounded=0;exitX=0;exitY=0.5;exitDx=0;exitDy=0;fillColor=#fff2cc;strokeColor=#d6b656;dashed=1;" edge="1" parent="1" source="3VtM1QO3zEpzEDvkbCo9-62">
          <mxGeometry width="50" height="50" relative="1" as="geometry">
            <mxPoint x="660" y="650" as="sourcePoint" />
            <mxPoint x="290" y="930" as="targetPoint" />
          </mxGeometry>
        </mxCell>
      </root>
    </mxGraphModel>
  </diagram>
</mxfile>
